<?xml version="1.0" encoding="UTF-8"?> <svg xmlns="http://www.w3.org/2000/svg" width="40" height="40" viewBox="0 0 40 40" fill="none"><path d="M31.6667 0H8.33333C3.73 0 0 3.73167 0 8.33333V31.6667C0 36.2683 3.73 40 8.33333 40H31.6667C36.27 40 40 36.2683 40 31.6667V8.33333C40 3.73167 36.27 0 31.6667 0ZM36.6667 11.6667H31.6667V15H36.6667V25H26.6667V28.3333H36.6667V31.6667C36.6667 34.4233 34.4233 36.6667 31.6667 36.6667H8.33333C5.57667 36.6667 3.33333 34.4233 3.33333 31.6667V28.3333H6.66667V25H3.33333V15H16.6667V11.6667H3.33333V8.33333C3.33333 5.57667 5.57667 3.33333 8.33333 3.33333H31.6667C34.4233 3.33333 36.6667 5.57667 36.6667 8.33333V11.6667ZM23.3333 16.6667C23.3333 17.5867 22.5883 18.3333 21.6667 18.3333C20.745 18.3333 20 17.5867 20 16.6667V10C20 9.08 20.745 8.33333 21.6667 8.33333C22.5883 8.33333 23.3333 9.08 23.3333 10V16.6667ZM28.3333 16.6667C28.3333 17.5867 27.5883 18.3333 26.6667 18.3333C25.745 18.3333 25 17.5867 25 16.6667V10C25 9.08 25.745 8.33333 26.6667 8.33333C27.5883 8.33333 28.3333 9.08 28.3333 10V16.6667ZM13.3333 30C13.3333 30.92 12.5883 31.6667 11.6667 31.6667C10.745 31.6667 10 30.92 10 30V23.3333C10 22.4133 10.745 21.6667 11.6667 21.6667C12.5883 21.6667 13.3333 22.4133 13.3333 23.3333V30ZM18.3333 30C18.3333 30.92 17.5883 31.6667 16.6667 31.6667C15.745 31.6667 15 30.92 15 30V23.3333C15 22.4133 15.745 21.6667 16.6667 21.6667C17.5883 21.6667 18.3333 22.4133 18.3333 23.3333V30ZM23.3333 30C23.3333 30.92 22.5883 31.6667 21.6667 31.6667C20.745 31.6667 20 30.92 20 30V23.3333C20 22.4133 20.745 21.6667 21.6667 21.6667C22.5883 21.6667 23.3333 22.4133 23.3333 23.3333V30Z" fill="#33363B"></path></svg> 