<?xml version="1.0" encoding="UTF-8"?> <svg xmlns="http://www.w3.org/2000/svg" width="48" height="40" viewBox="0 0 48 40" fill="none"><path d="M32.868 35.1743C33.972 34.7857 35.022 34.2943 36.006 33.7058L38.384 36.7876C36.972 37.6581 35.444 38.3666 33.828 38.8961L32.868 35.1743ZM12.658 28.6526L10.258 32.0334C11.1 33.0944 12.066 34.0562 13.11 34.94L15.274 31.6849C14.28 30.7801 13.398 29.763 12.658 28.6526ZM10.306 17.1424C11.728 9.57689 18.654 3.80942 27 3.80942C36.374 3.80942 44 11.0721 44 19.9995C44 24.4051 42.136 28.4012 39.128 31.323L41.522 34.4219C45.508 30.782 48 25.6717 48 19.9995C48 8.95595 38.594 0 27 0C16.424 0 7.702 7.45504 6.246 17.1424H0L8 28.4126L16 17.1424H10.306ZM21.796 35.3781C20.632 35.0181 19.518 34.561 18.48 33.982L16.35 37.1876C17.726 37.9666 19.198 38.5952 20.752 39.0599L21.796 35.3781ZM28.98 36.0714C27.302 36.2562 26.91 36.1971 25.734 36.1114L24.668 39.8675C26.56 40.0675 27.99 40.0428 29.94 39.7818L28.98 36.0714Z" fill="#33363B"></path></svg> 