<?xml version="1.0" encoding="UTF-8"?> <svg xmlns="http://www.w3.org/2000/svg" width="40" height="40" viewBox="0 0 40 40" fill="none"><path d="M20 3.33333C29.19 3.33333 36.6667 10.81 36.6667 20C36.6667 29.19 29.19 36.6667 20 36.6667C10.81 36.6667 3.33333 29.19 3.33333 20C3.33333 10.81 10.81 3.33333 20 3.33333ZM20 0C8.955 0 0 8.955 0 20C0 31.045 8.955 40 20 40C31.045 40 40 31.045 40 20C40 8.955 31.045 0 20 0ZM26.6667 28.3333H13.3333V18.3333H26.6667V28.3333ZM16.6667 18.3333V15C16.6667 13.16 18.1617 11.6667 20 11.6667C21.8383 11.6667 23.3333 13.16 23.3333 15V18.3333H25V15C25 12.24 22.7617 10 20 10C17.2383 10 15 12.24 15 15V18.3333H16.6667Z" fill="#33363B"></path></svg> 