<?xml version="1.0" encoding="UTF-8"?> <!-- Generator: Adobe Illustrator 21.0.0, SVG Export Plug-In . SVG Version: 6.00 Build 0) --> <svg xmlns="http://www.w3.org/2000/svg" xmlns:xlink="http://www.w3.org/1999/xlink" id="Layer_1" x="0px" y="0px" width="88.1px" height="19px" viewBox="0 0 88.1 19" style="enable-background:new 0 0 88.1 19;" xml:space="preserve"> <style type="text/css"> .st0{fill:#FFFFFF;} .st1{fill:#B79B6C;} </style> <path class="st0" d="M0,12.4h3.8C4,14.2,5.3,15,7.1,15c2.3,0,3.1-0.7,3.1-1.7c0-0.9-0.6-1.5-2-1.8L5.7,11c-2.9-0.6-5.2-1.8-5.2-5 c0-2.8,2.6-4.8,6.6-4.8c3.8,0,6.7,2.3,6.7,5.5H10C9.9,5.5,9,4.5,7.1,4.5c-2,0-2.6,0.8-2.6,1.5c0,0.6,0.3,1.2,1.9,1.6L8.6,8 c3.1,0.6,5.5,1.9,5.5,5.2c0,3-2,5.2-7,5.2C2.6,18.3,0.2,16,0,12.4z"></path> <path class="st0" d="M17,14.3V8.7h-2V5.6h2.2V3l3.3-0.7h0.2v3.3h3v3.1h-3v4.7c0,1.2,0.5,1.7,1.6,1.7c0.4,0,0.8-0.1,1.2-0.2h0.2V18 c-0.4,0.1-1.4,0.4-2.5,0.4C18.3,18.3,17,16.6,17,14.3z"></path> <path class="st0" d="M25.2,11.9c0-3.8,2.2-6.5,6.3-6.5c4,0,6.3,2.7,6.3,6.5c0,3.7-2.2,6.5-6.3,6.5C27.3,18.3,25.2,15.6,25.2,11.9z M33.9,11.9c0-2.3-1-3.3-2.5-3.3s-2.5,1-2.5,3.3s1,3.2,2.5,3.2C33,15.1,33.9,14.1,33.9,11.9z"></path> <path class="st0" d="M38.6,11.8c0-3.8,2.2-6.5,6.2-6.5c3.7,0,5.6,2.3,5.8,5.2h-3.7c-0.1-1.1-0.9-1.9-2.1-1.9c-1.6,0-2.4,1-2.4,3.2 c0,2.3,0.9,3.3,2.4,3.3c1.2,0,2-0.8,2.1-1.9h3.7c-0.2,2.9-2.1,5.2-5.7,5.2C40.9,18.3,38.6,15.6,38.6,11.8z"></path> <path class="st0" d="M64.4,18.1v0.2H60L55.7,13v5.4h-3.5V1.1h3.5v9l4-4.6H64v0.2l-5.1,5.7L64.4,18.1z"></path> <path class="st0" d="M65.1,2.1c0-1.3,0.8-2.1,2.2-2.1c1.4,0,2.2,0.8,2.2,2.1s-0.8,2.2-2.2,2.2S65.1,3.5,65.1,2.1z M65.4,5.6h3.7 v12.8h-3.7V5.6z"></path> <path class="st0" d="M70.5,11.9c0-3.6,2.1-6.5,6.1-6.5c3.8,0,6,2.7,6,6.1v1.4h-8.4c0,1.5,0.8,2.5,2.4,2.5c1.4,0,2-0.7,2.2-1.2h3.6 c-0.3,2.3-2.3,4.2-5.8,4.2C72.7,18.3,70.5,15.5,70.5,11.9z M78.8,10.5c-0.1-1.2-0.8-2.1-2.2-2.1c-1.6,0-2.3,0.9-2.4,2.1H78.8z"></path> <circle class="st1" cx="86" cy="16.4" r="2"></circle> </svg> 